# xmcd CD database file
#
# Track frame offsets:
#	150
#	18981
#	36351
#
# Disc length: 672 seconds
#
# Revision: 0
# Processed by: cddbd v1.5.1PL0 Copyright (c) Steve Scherf et al.
# Submitted via: CDex 1.51
#
DISCID=1c029e03
DTITLE=やなわらばー - 変わらぬ「青」
DYEAR=2003
DGENRE=JPop
TTITLE0=変わらぬ「青」
TTITLE1=月明かり
TTITLE2=ゆっくりおやすみ
EXTD=YEAR: 2003
EXTT0=
EXTT1=
EXTT2=
PLAYORDER=
